<svg preserveAspectRatio="xMidYMin slice"  width="1223" height="421" viewBox="50 50 1223 421" fill="none" xmlns="http://www.w3.org/2000/svg">
<path d="M519.5 188C560.557 168.112 589.259 174.615 634.5 170.5C680.218 166.341 706.093 167.043 752 167C969.383 166.797 1303.5 242.5 1303.5 242.5L1292.5 29L566.885 19.5L128.385 0C128.385 0 -93.2299 473.764 47.9999 400C70.7574 388.114 79.0024 373.915 102 362.5C138.956 344.157 164.084 344.301 205 339C260.144 331.856 287.113 352.324 332 331C351.766 321.61 362.049 313.981 378 299C396.702 281.435 400.415 264.558 417.5 246.5C449.06 213.144 480.474 206.905 519.5 188Z" fill="#FAFAFE"/>
</svg>
