<svg width="24" height="24" viewBox="0 0 24 24" fill="none" xmlns="http://www.w3.org/2000/svg">
<path d="M12 21C10.05 21 8.39583 20.3208 7.0375 18.9625C5.67917 17.6042 5 15.95 5 14C5 12.4333 5.4625 11.0292 6.3875 9.7875C7.3125 8.54583 8.525 7.70833 10.025 7.275C9.69167 7.19167 9.36667 7.07083 9.05 6.9125C8.73333 6.75417 8.45 6.55 8.2 6.3C7.65 5.75 7.29583 5.09583 7.1375 4.3375C6.97917 3.57917 6.94167 2.80833 7.025 2.025C7.80833 1.94167 8.57917 1.97917 9.3375 2.1375C10.0958 2.29583 10.75 2.65 11.3 3.2C11.6833 3.58333 11.9625 4.01667 12.1375 4.5C12.3125 4.98333 12.425 5.49167 12.475 6.025C12.6917 5.50833 12.9542 5.02083 13.2625 4.5625C13.5708 4.10417 13.9167 3.68333 14.3 3.3C14.4833 3.11667 14.7167 3.025 15 3.025C15.2833 3.025 15.5167 3.11667 15.7 3.3C15.8833 3.48333 15.975 3.71667 15.975 4C15.975 4.28333 15.8833 4.51667 15.7 4.7C15.3333 5.06667 15.0083 5.47083 14.725 5.9125C14.4417 6.35417 14.2333 6.825 14.1 7.325C15.5667 7.79167 16.75 8.6375 17.65 9.8625C18.55 11.0875 19 12.4667 19 14C19 15.95 18.3208 17.6042 16.9625 18.9625C15.6042 20.3208 13.95 21 12 21ZM12 19C13.3833 19 14.5625 18.5125 15.5375 17.5375C16.5125 16.5625 17 15.3833 17 14C17 12.6167 16.5125 11.4375 15.5375 10.4625C14.5625 9.4875 13.3833 9 12 9C10.6167 9 9.4375 9.4875 8.4625 10.4625C7.4875 11.4375 7 12.6167 7 14C7 15.3833 7.4875 16.5625 8.4625 17.5375C9.4375 18.5125 10.6167 19 12 19Z" fill="black"/>
</svg>
