<svg width="24" height="24" viewBox="0 0 24 24" fill="none" xmlns="http://www.w3.org/2000/svg">
<g clip-path="url(#clip0_53_491)">
<path d="M9.73392 12.499V10.9683C13.2478 10.9683 16.3003 12.8369 16.9917 15.4139L15.5122 15.8125C14.9987 13.8926 12.5674 12.499 9.73392 12.499ZM24 18.3993H22.436C22.2693 21.22 20.4174 23.4508 18.1595 23.4508H5.87326C3.61705 23.4508 1.76584 21.2199 1.5985 18.3993H0.0328857V16.8682H0.287877C0.104728 16.4523 0 16.0166 0 15.5695C0 13.4785 2.09292 11.7515 4.76868 11.5436C5.71933 9.25821 8.58191 7.65187 11.8386 7.65187C15.0883 7.65187 17.9442 9.25138 18.9028 11.5286C21.6914 11.6489 23.9103 13.4156 23.9103 15.5694C23.9103 16.018 23.8131 16.4554 23.6323 16.8681H23.9994L24 18.3993ZM2.00325 16.771L1.88625 16.8682H21.8169C22.0815 16.5826 22.3791 16.1392 22.3791 15.5695C22.3791 14.2059 20.6469 13.053 18.5983 13.053L17.7752 13.0784L17.6181 12.4945C17.1031 10.5758 14.6718 9.1822 11.8385 9.1822C9.00866 9.1822 6.5774 10.5716 6.05945 12.487L5.90691 13.0522H5.3204C3.26188 13.0522 1.53032 14.205 1.53032 15.5687C1.53108 15.9897 1.69033 16.3948 2.00325 16.771ZM20.8922 18.3993H3.14185C3.28883 20.373 4.4502 21.9197 5.8725 21.9197H18.1587C19.5831 21.9197 20.7448 20.3728 20.8922 18.3993ZM5.329 0.549191H3.79792V7.43926H5.329V0.549191ZM12.4739 0.549191H10.9429V5.81761H12.4739V0.549191ZM19.6189 0.549191H18.0878V7.43926H19.6189V0.549191Z" fill="black"/>
</g>
<defs>
<clipPath id="clip0_53_491">
<rect width="24" height="24" fill="white"/>
</clipPath>
</defs>
</svg>
